<?xml version="1.0" standalone="no"?>
<!DOCTYPE svg PUBLIC "-//W3C//DTD SVG 20010904//EN"
 "http://www.w3.org/TR/2001/REC-SVG-20010904/DTD/svg10.dtd">
<svg version="1.0" xmlns="http://www.w3.org/2000/svg"
 width="1520.000000pt" height="1520.000000pt" viewBox="0 0 1520.000000 1520.000000"
 preserveAspectRatio="xMidYMid meet">
<metadata>
Created by potrace 1.11, written by Peter Selinger 2001-2013
</metadata>
<g transform="translate(0.000000,1520.000000) scale(0.100000,-0.100000)"
fill="#000000" stroke="none">
<path d="M7119 12294 c-59 -12 -119 -25 -135 -27 -16 -3 -40 -8 -54 -11 -14
-3 -37 -8 -52 -11 -44 -8 -78 -15 -158 -31 -41 -9 -86 -18 -100 -20 -27 -5
-111 -21 -150 -30 -14 -2 -56 -11 -95 -19 -38 -7 -81 -16 -95 -19 -14 -3 -38
-8 -55 -11 -38 -7 -173 -34 -200 -39 -37 -8 -480 -96 -505 -101 -14 -2 -81
-16 -150 -31 -69 -14 -136 -27 -150 -29 -31 -5 -77 -13 -110 -21 -14 -3 -34
-8 -45 -10 -11 -2 -31 -6 -45 -9 -162 -32 -229 -45 -252 -49 -15 -3 -31 -7
-35 -9 -5 -3 -30 -8 -57 -11 -27 -4 -52 -9 -56 -11 -3 -2 -25 -6 -50 -10 -25
-4 -47 -8 -50 -10 -3 -2 -25 -6 -50 -10 -25 -4 -47 -8 -50 -10 -3 -2 -24 -6
-46 -9 -51 -8 -81 -14 -102 -20 -9 -3 -29 -7 -44 -10 -15 -3 -63 -12 -105 -20
-112 -23 -125 -26 -158 -31 -32 -6 -64 -12 -105 -21 -14 -3 -36 -7 -50 -10
-14 -3 -79 -16 -145 -30 -66 -13 -131 -27 -145 -29 -35 -7 -83 -16 -95 -19 -5
-2 -32 -7 -60 -11 -58 -10 -64 -12 -67 -15 -2 -1 -14 -3 -28 -5 -14 -1 -36 -5
-50 -8 -101 -21 -316 -64 -365 -73 -11 -2 -63 -12 -115 -24 -52 -11 -108 -22
-125 -25 -29 -4 -53 -9 -105 -21 -14 -3 -39 -7 -56 -8 -17 -2 -36 -6 -41 -9
-5 -3 -23 -8 -39 -11 -16 -3 -45 -8 -64 -11 -19 -3 -51 -10 -70 -15 -37 -9
-81 -17 -140 -26 -19 -3 -48 -9 -65 -14 -16 -5 -46 -11 -65 -14 -19 -3 -69
-12 -110 -21 -41 -9 -85 -18 -97 -21 -13 -2 -35 -6 -50 -9 -16 -3 -37 -7 -48
-9 -11 -2 -29 -6 -40 -9 -11 -3 -36 -8 -55 -11 -33 -5 -112 -20 -155 -30 -92
-20 -114 -25 -145 -30 -37 -6 -70 -12 -110 -21 -14 -4 -36 -8 -50 -11 -14 -2
-47 -9 -75 -14 -27 -5 -62 -12 -77 -15 -63 -12 -84 -16 -98 -20 -8 -3 -33 -7
-55 -10 -22 -4 -48 -8 -57 -11 -10 -3 -28 -7 -40 -9 -13 -3 -45 -9 -73 -15
-27 -5 -72 -14 -100 -20 -27 -5 -61 -12 -75 -15 -26 -6 -36 -8 -105 -20 -22
-3 -56 -10 -75 -15 -19 -5 -47 -11 -62 -14 -15 -2 -65 -12 -110 -22 -46 -9
-89 -17 -95 -17 -10 0 -13 -66 -13 -296 l0 -296 7415 0 c4078 0 7416 2 7416 5
1 3 2 134 3 293 2 311 5 291 -51 301 -265 50 -375 71 -388 75 -23 6 -29 7 -78
15 -27 4 -59 10 -70 12 -12 3 -33 7 -47 9 -14 2 -47 9 -75 15 -52 11 -86 17
-132 25 -16 2 -39 7 -53 9 -49 11 -75 16 -105 21 -16 3 -41 7 -55 10 -14 3
-38 8 -55 10 -16 3 -64 13 -105 21 -41 8 -86 17 -100 19 -14 2 -34 6 -45 8
-11 3 -40 8 -65 13 -25 4 -47 8 -50 9 -3 1 -18 4 -35 8 -16 4 -48 10 -70 13
-65 10 -80 12 -85 14 -3 1 -9 3 -15 4 -5 1 -24 5 -40 9 -17 4 -46 9 -66 11
-19 2 -46 7 -60 12 -13 4 -33 8 -44 9 -11 1 -31 4 -45 8 -14 4 -86 18 -160 32
-74 14 -146 28 -160 31 -14 3 -38 7 -55 9 -16 1 -30 4 -30 5 0 1 -11 4 -25 6
-22 4 -164 30 -215 40 -11 2 -31 6 -45 9 -14 2 -41 7 -60 10 -19 3 -51 10 -70
15 -19 5 -51 11 -70 13 -19 3 -60 11 -90 17 -30 7 -65 13 -77 13 -13 1 -23 3
-23 7 0 3 -12 6 -27 6 -16 1 -64 9 -108 19 -44 9 -89 18 -100 19 -21 4 -86 16
-120 23 -33 7 -65 13 -155 29 -96 18 -115 22 -150 29 -14 3 -50 9 -80 15 -73
13 -87 16 -235 45 -54 11 -70 14 -105 20 -51 9 -73 13 -96 19 -12 2 -37 7 -55
10 -19 3 -81 15 -139 26 -58 12 -116 23 -130 25 -22 4 -88 16 -146 29 -25 5
-90 17 -119 21 -11 2 -20 4 -20 5 0 1 -11 3 -25 5 -14 1 -38 6 -55 9 -41 9
-433 84 -470 90 -16 3 -55 10 -85 16 -30 6 -66 13 -80 16 -14 2 -36 7 -50 9
-14 3 -36 7 -50 10 -14 2 -38 7 -55 10 -16 4 -39 8 -50 10 -11 2 -31 6 -45 10
-14 3 -50 9 -80 15 -58 10 -84 15 -165 30 -27 5 -62 12 -78 14 -15 3 -35 7
-45 10 -9 3 -33 8 -52 10 -20 3 -47 7 -60 10 -45 10 -150 30 -215 41 -22 4
-43 9 -46 11 -4 2 -24 6 -45 9 -22 3 -50 7 -64 11 -14 3 -38 7 -55 10 -16 3
-39 7 -50 9 -11 2 -33 7 -50 10 -16 3 -50 10 -75 15 -25 5 -58 12 -75 15 -28
5 -45 8 -105 20 -14 2 -41 7 -60 10 -19 3 -42 8 -50 10 -17 5 -46 10 -140 26
-36 6 -78 14 -95 19 -16 5 -52 12 -79 15 -27 3 -52 8 -56 10 -22 14 -119 9
-211 -11z m224 -138 c47 -10 81 -17 107 -21 14 -2 59 -10 100 -19 41 -8 89
-17 105 -20 17 -3 41 -8 55 -11 14 -2 36 -7 50 -9 14 -2 46 -9 71 -15 25 -6
61 -13 80 -15 19 -3 84 -15 144 -27 61 -11 119 -22 130 -24 11 -2 34 -7 50
-10 393 -76 404 -78 433 -79 12 -1 22 -4 22 -7 0 -3 6 -6 13 -6 17 0 76 -11
160 -28 40 -8 86 -17 102 -20 29 -5 48 -8 105 -20 26 -5 79 -15 115 -21 35 -6
79 -14 101 -19 12 -3 39 -7 60 -10 21 -4 48 -9 59 -12 25 -8 30 -9 85 -18 25
-3 61 -10 80 -15 29 -7 157 -31 300 -56 14 -3 32 -7 40 -9 8 -3 33 -7 55 -11
22 -3 96 -17 165 -31 69 -13 136 -26 150 -29 23 -4 76 -14 110 -21 8 -2 29 -5
45 -7 17 -2 30 -5 30 -6 0 -1 11 -3 25 -6 14 -2 48 -8 75 -14 28 -5 61 -12 75
-14 14 -3 50 -10 80 -16 30 -6 71 -13 90 -16 19 -3 64 -12 99 -20 35 -8 66
-13 68 -10 3 3 13 1 22 -4 15 -7 54 -15 126 -26 11 -1 20 -3 20 -4 0 -1 11 -3
25 -5 23 -3 43 -7 110 -21 14 -3 34 -7 45 -9 27 -4 174 -33 205 -40 14 -3 39
-8 55 -10 17 -2 46 -8 65 -13 20 -5 43 -8 53 -6 9 1 17 -3 17 -9 0 -5 2 -8 5
-5 3 3 27 1 53 -4 26 -4 61 -11 77 -14 17 -2 64 -12 105 -20 41 -8 86 -17 100
-19 22 -3 130 -24 155 -29 6 -2 33 -7 60 -11 52 -9 58 -11 80 -16 13 -4 104
-21 130 -25 23 -4 105 -20 145 -29 3 0 28 -5 55 -10 28 -5 52 -9 55 -10 3 -1
28 -5 55 -10 28 -5 52 -10 55 -10 11 -3 76 -16 100 -19 14 -3 25 -5 25 -6 0
-1 14 -4 30 -6 17 -3 66 -12 110 -20 44 -9 94 -18 110 -20 17 -3 37 -7 45 -10
8 -3 33 -8 55 -10 22 -3 47 -8 55 -10 8 -3 26 -8 40 -10 14 -3 63 -12 110 -20
47 -9 96 -18 110 -20 14 -3 59 -11 100 -19 100 -20 116 -23 180 -35 30 -6 66
-13 80 -16 14 -4 37 -7 53 -8 15 0 27 -3 27 -6 0 -3 8 -6 18 -6 9 -1 31 -4 47
-7 17 -3 44 -9 60 -11 29 -6 49 -10 105 -21 14 -2 39 -7 55 -10 17 -3 41 -7
55 -10 123 -24 179 -35 203 -39 72 -12 68 -1 65 -174 l-3 -157 -7270 0 -7269
0 -1 140 c-1 194 -6 180 78 195 85 15 81 14 177 35 41 9 89 18 105 21 17 2 40
6 52 9 27 6 43 9 98 20 22 5 42 9 45 10 3 1 25 5 50 9 25 5 54 10 65 12 32 7
117 24 150 30 43 8 60 12 60 14 0 1 9 3 20 5 11 2 38 6 60 10 22 4 49 9 60 10
11 2 20 4 20 5 0 2 23 7 75 15 52 8 75 13 75 15 0 1 11 4 25 6 14 2 115 23
225 45 110 22 211 42 225 44 14 2 81 16 150 30 69 14 136 28 150 30 14 2 25 4
25 5 0 2 34 10 65 15 14 2 41 7 60 11 19 3 44 8 55 9 11 2 20 4 20 5 0 2 18 6
65 14 19 3 44 8 55 10 17 4 240 48 310 62 11 2 31 6 45 9 14 3 36 8 50 10 14
3 39 8 55 11 17 4 39 8 50 10 11 2 43 8 70 14 59 12 89 18 130 25 17 3 37 8
45 10 8 2 29 7 45 10 17 2 41 7 55 10 51 11 126 26 150 30 14 2 36 7 50 10 14
3 39 8 55 11 17 3 86 16 155 30 69 14 134 28 145 30 11 2 31 6 45 9 14 3 39 7
55 10 17 3 59 11 95 19 36 8 79 16 95 19 17 3 41 8 55 11 14 3 36 8 50 10 14
2 45 9 70 15 25 5 59 12 75 15 17 3 41 8 55 11 58 12 96 19 115 21 11 1 20 3
20 4 0 2 36 10 65 14 14 2 48 9 75 16 28 6 68 14 90 17 21 2 42 6 46 9 4 2 24
6 45 10 22 3 56 10 77 15 21 6 51 12 67 14 16 2 37 6 47 9 10 3 36 7 58 11 22
3 48 8 57 11 18 5 46 11 93 19 17 3 64 13 105 21 41 9 86 18 100 20 14 2 36 7
50 10 14 3 36 8 50 10 14 3 70 14 125 25 55 12 109 23 120 25 11 3 36 7 55 10
19 3 78 14 130 25 52 11 109 22 125 25 17 3 50 10 75 15 25 6 56 13 70 15 14
2 45 9 70 14 25 5 59 12 75 14 17 2 30 5 30 6 0 2 38 10 120 24 24 4 72 14
100 20 84 19 166 35 195 40 35 6 63 11 110 22 14 3 35 7 47 9 12 2 34 6 50 9
15 4 41 9 58 12 16 3 31 7 33 9 5 5 101 -1 135 -9z"/>
<path d="M17 9562 c-14 -3 -17 -16 -17 -76 l0 -72 28 1 c22 1 126 -19 203 -39
19 -5 95 -41 124 -59 45 -28 126 -119 153 -174 36 -71 45 -105 56 -193 7 -54
8 -3380 1 -3430 -2 -19 -7 -46 -11 -60 -3 -14 -7 -32 -8 -40 -1 -9 -5 -20 -8
-25 -3 -6 -11 -27 -17 -47 -7 -21 -17 -38 -22 -38 -5 0 -9 -6 -9 -13 0 -8 -9
-25 -21 -38 -11 -13 -24 -29 -27 -35 -17 -26 -117 -94 -168 -113 -77 -29 -174
-50 -240 -53 l-34 -1 0 -72 0 -71 1128 0 1127 1 0 69 c0 77 7 70 -85 80 -25 3
-56 8 -70 11 -14 3 -36 8 -50 11 -35 7 -142 58 -169 80 -108 89 -156 176 -187
334 -9 47 -10 3238 -1 3317 7 61 10 75 24 111 3 9 7 22 8 27 6 27 18 55 25 55
4 0 11 12 15 27 15 60 172 183 245 191 3 0 19 6 35 12 54 21 86 23 445 25 360
3 445 -2 535 -32 28 -9 50 -15 50 -13 0 2 20 -9 45 -25 103 -65 171 -153 205
-265 24 -81 29 -129 29 -287 1 -79 5 -143 9 -143 5 0 5 -5 1 -12 -11 -18 -11
-108 0 -108 6 0 5 -5 -1 -11 -7 -7 -8 -21 -3 -40 5 -16 6 -29 2 -29 -9 0 -7
-133 2 -148 4 -7 4 -12 -1 -12 -4 0 -8 -63 -8 -140 0 -77 4 -140 8 -140 5 0 5
-5 1 -12 -11 -18 -11 -108 0 -108 6 0 5 -5 -1 -11 -7 -7 -8 -21 -3 -40 5 -16
6 -29 2 -29 -4 0 -6 -73 -5 -162 2 -90 3 -167 3 -173 0 -5 -1 -28 -3 -50 -1
-22 0 -52 4 -67 4 -16 5 -28 1 -28 -4 0 -7 -63 -7 -140 0 -77 4 -140 8 -140 5
0 5 -5 1 -12 -11 -18 -11 -108 0 -108 6 0 5 -5 -1 -11 -7 -7 -8 -21 -3 -40 5
-16 6 -29 2 -29 -4 0 -6 -73 -5 -162 2 -90 3 -167 3 -173 0 -5 0 -75 0 -155 0
-80 0 -152 0 -160 0 -8 -1 -33 -3 -55 -1 -22 0 -52 4 -67 4 -16 5 -28 1 -28
-4 0 -7 -84 -8 -188 -1 -154 -7 -257 -14 -257 -1 0 -3 -11 -6 -24 -7 -36 -55
-144 -71 -157 -7 -6 -13 -15 -13 -20 0 -13 -58 -66 -110 -101 -37 -24 -145
-72 -165 -73 -3 0 -6 0 -7 -1 -12 -3 -52 -9 -98 -14 -90 -10 -87 -8 -84 -78 1
-34 2 -65 3 -68 1 -4 2236 -5 2251 -1 8 3 2 125 -7 133 -4 4 -35 10 -68 13
-214 20 -363 114 -437 275 -60 129 -57 54 -57 1901 0 1659 0 1697 20 1779 11
47 25 91 31 98 6 7 7 13 2 13 -5 0 -4 4 1 8 6 4 17 20 25 36 21 40 86 106 140
143 68 45 213 91 303 97 20 1 39 4 42 8 9 9 12 117 4 130 -5 7 -787 11 -2506
12 -1375 0 -2507 0 -2516 -2z"/>
<path d="M5447 9562 c-14 -3 -17 -16 -17 -73 0 -58 3 -69 18 -71 24 -2 46 -6
52 -8 3 -1 19 -3 35 -5 39 -4 86 -15 97 -21 4 -3 17 -7 28 -9 39 -7 141 -65
182 -103 89 -81 139 -191 154 -337 9 -82 9 -3289 1 -3385 -8 -84 -14 -114 -37
-177 -21 -57 -38 -90 -57 -110 -6 -7 -20 -23 -30 -36 -30 -37 -98 -86 -157
-112 -31 -14 -56 -22 -56 -19 0 4 -6 2 -13 -4 -7 -6 -31 -13 -52 -16 -22 -2
-40 -5 -40 -7 0 -2 -76 -10 -103 -9 -22 0 -23 -3 -20 -73 l3 -72 1118 -1 c809
0 1120 3 1127 11 5 6 8 38 7 70 -2 66 4 62 -89 68 -21 1 -38 5 -38 10 0 4 -4
6 -9 3 -4 -3 -23 -1 -42 5 -19 6 -45 12 -59 15 -44 9 -140 67 -185 111 -66 65
-117 161 -131 248 -3 17 -7 44 -10 60 -8 43 -8 3274 0 3310 34 161 61 220 138
297 45 45 121 95 158 103 3 1 23 7 45 14 75 23 131 26 505 26 405 -1 444 -5
557 -60 119 -57 217 -189 240 -320 3 -16 9 -38 14 -47 7 -12 6 -18 -1 -18 -7
0 -8 -6 -1 -17 5 -11 8 -658 7 -1663 -2 -1518 -3 -1649 -19 -1703 -47 -160
-130 -262 -262 -320 -23 -10 -47 -19 -55 -20 -8 -2 -19 -5 -25 -8 -16 -10 -61
-19 -117 -24 -99 -10 -93 -5 -94 -71 0 -32 1 -64 3 -70 3 -7 344 -10 1128 -10
l1125 0 0 72 c0 69 -1 72 -25 76 -14 3 -25 1 -25 -4 0 -5 -4 -6 -10 -3 -11 7
-26 10 -86 19 -94 15 -198 63 -260 119 -70 64 -119 152 -151 273 -4 16 -9 799
-10 1739 -3 1799 -3 1784 40 1888 9 19 13 38 9 41 -3 3 0 6 7 6 7 0 9 5 6 10
-3 6 -2 10 4 10 5 0 13 9 16 20 11 36 112 128 172 159 87 44 171 66 283 75 24
2 25 5 28 74 2 54 0 72 -10 73 -53 2 -4998 3 -5011 1z"/>
<path d="M10831 9547 c-4 -10 -6 -37 -5 -60 2 -23 3 -49 3 -58 1 -12 9 -16 31
-14 17 1 33 -1 36 -6 3 -5 9 -7 14 -4 17 10 145 -26 217 -61 111 -54 201 -153
232 -255 7 -24 16 -51 19 -59 9 -26 12 -53 17 -135 10 -160 10 -175 0 -179 -5
-3 -4 -5 2 -5 9 -1 10 -8 4 -23 -5 -13 -5 -32 -1 -43 4 -11 4 -31 0 -44 -3
-13 -3 -46 0 -73 4 -26 3 -53 -1 -60 -4 -6 -4 -19 1 -28 5 -9 6 -21 2 -27 -4
-6 -5 -48 -2 -92 3 -49 1 -83 -5 -85 -5 -3 -4 -5 2 -5 9 -1 10 -8 4 -23 -5
-13 -5 -32 -1 -43 4 -11 4 -31 0 -44 -3 -13 -3 -46 0 -73 4 -26 3 -53 -1 -60
-4 -6 -4 -19 1 -28 5 -9 6 -21 2 -27 -4 -6 -5 -48 -2 -92 3 -49 1 -83 -5 -85
-5 -3 -4 -5 2 -5 9 -1 10 -8 4 -23 -5 -13 -5 -32 -1 -43 4 -11 5 -24 2 -29 -4
-8 -4 -47 1 -169 1 -26 -2 -49 -8 -51 -5 -3 -4 -5 2 -5 9 -1 10 -8 4 -23 -5
-13 -5 -32 -1 -43 4 -11 4 -31 0 -44 -3 -13 -3 -46 0 -73 4 -26 3 -53 -1 -60
-4 -6 -4 -19 1 -28 5 -9 6 -21 2 -27 -4 -6 -5 -48 -2 -92 3 -49 1 -83 -5 -85
-5 -3 -4 -5 2 -5 9 -1 10 -8 4 -23 -5 -13 -5 -32 -1 -43 4 -11 4 -31 0 -44 -3
-13 -3 -46 0 -73 4 -26 3 -53 -1 -60 -4 -6 -4 -19 1 -28 5 -9 6 -21 2 -27 -4
-6 -5 -48 -2 -92 3 -49 1 -83 -5 -85 -5 -3 -4 -5 2 -5 9 -1 10 -8 4 -23 -5
-13 -5 -32 -1 -43 4 -11 5 -24 2 -29 -4 -8 -4 -47 1 -169 1 -26 -2 -49 -8 -51
-5 -3 -4 -5 2 -5 9 -1 10 -8 4 -23 -5 -13 -5 -32 -1 -43 4 -11 4 -32 -1 -47
-4 -14 -6 -28 -4 -30 3 -3 5 -46 5 -110 0 -10 0 -26 0 -35 0 -10 0 -49 0 -88
1 -38 3 -78 6 -89 4 -10 2 -16 -2 -13 -5 3 -9 -32 -10 -76 -1 -45 -4 -95 -7
-112 -4 -16 -9 -43 -13 -60 -8 -37 -54 -139 -66 -143 -4 -2 -8 -9 -8 -16 0
-14 -71 -84 -115 -113 -33 -22 -126 -62 -159 -69 -11 -3 -34 -7 -51 -9 -16 -3
-41 -7 -55 -11 -14 -3 -40 -5 -57 -5 -19 0 -33 -5 -34 -12 -1 -20 -1 -91 0
-113 l1 -21 1118 3 c614 1 1155 5 1202 8 149 9 234 16 285 22 28 3 61 7 75 9
14 1 54 6 90 10 36 4 67 8 71 10 3 2 28 7 55 10 27 4 96 18 154 32 58 13 121
28 140 32 111 25 429 157 438 182 2 5 8 9 14 9 6 0 37 18 69 40 165 113 298
265 377 433 47 100 91 266 98 367 1 19 3 37 4 40 4 11 5 206 1 215 -3 5 -6 25
-7 45 -13 180 -110 421 -212 526 -7 8 -11 14 -7 14 11 0 -150 155 -187 180
-21 14 -38 28 -38 33 0 4 -5 7 -12 7 -6 0 -19 6 -27 14 -15 13 -33 24 -153 89
-24 13 -63 31 -88 41 -25 10 -56 23 -70 29 -14 6 -27 11 -30 12 -3 1 -12 4
-20 7 -8 3 -46 15 -85 26 -38 12 -81 24 -95 29 -14 4 -29 8 -35 8 -5 1 -23 4
-40 8 -66 16 -82 19 -120 23 -22 3 -47 8 -55 11 -8 3 -28 7 -45 9 -61 6 -141
15 -185 20 -33 4 -712 14 -977 14 l-22 0 1 808 c0 444 4 833 9 864 11 70 40
121 83 146 31 18 46 23 116 37 28 6 669 6 745 0 58 -4 119 -12 155 -20 14 -4
38 -9 54 -11 73 -14 286 -100 306 -124 3 -3 22 -16 43 -29 83 -51 199 -168
267 -271 28 -41 54 -79 58 -85 5 -5 10 -14 11 -20 2 -5 19 -41 38 -80 19 -38
35 -77 37 -85 2 -8 9 -28 16 -45 16 -38 69 -219 76 -260 2 -16 7 -38 10 -47 3
-9 7 -26 9 -37 3 -12 7 -31 10 -42 2 -12 6 -24 9 -26 7 -7 126 -7 133 1 11 11
9 1406 -2 1407 -5 0 -876 1 -1934 2 -1839 2 -1924 1 -1930 -16z m2304 -2325
c28 -6 59 -13 70 -16 126 -28 276 -115 372 -216 55 -58 128 -172 163 -256 18
-43 33 -83 35 -89 1 -5 5 -17 8 -25 4 -8 8 -26 11 -40 2 -14 7 -32 10 -40 6
-19 16 -84 25 -174 12 -118 3 -410 -14 -476 -2 -8 -7 -31 -10 -50 -17 -101
-77 -252 -133 -340 -81 -124 -175 -208 -302 -267 -164 -77 -333 -99 -632 -83
-23 2 -99 32 -124 50 -40 30 -69 96 -92 213 -5 27 -10 425 -10 937 l-1 889
287 -3 c158 -2 310 -8 337 -14z"/>
<path d="M692 3542 l3 -516 106 -1 105 0 0 433 c-1 239 2 439 6 445 4 7 100
10 287 10 155 0 284 4 287 8 3 5 2 9 -3 9 -4 0 -8 29 -7 64 l1 65 -394 -1
-393 0 2 -516z"/>
<path d="M3750 3544 c0 -404 3 -514 13 -515 40 -4 197 -3 198 1 1 3 2 88 3
190 l1 185 36 1 c19 0 41 4 47 8 7 4 12 4 12 -1 0 -8 85 -8 235 0 141 8 280
72 332 152 40 61 59 168 41 230 -5 17 -10 35 -12 40 -5 23 -57 94 -88 120 -18
15 -55 39 -83 51 -97 45 -152 51 -452 52 l-283 1 0 -515z m540 363 c54 -11 80
-20 80 -27 0 -5 8 -11 18 -14 32 -11 65 -73 68 -130 4 -85 -48 -151 -136 -174
-28 -7 -350 -11 -351 -4 -1 4 -2 84 -3 177 l-1 170 40 5 c48 6 250 4 285 -3z"/>
<path d="M6913 3997 c19 -34 47 -84 62 -112 15 -27 51 -90 79 -140 29 -49 55
-97 59 -105 4 -8 11 -22 17 -30 5 -8 46 -79 90 -158 l81 -142 -19 -43 c-40
-88 -80 -114 -177 -112 l-50 1 -1 -68 c-1 -54 3 -69 15 -72 23 -7 162 -1 186
8 11 4 34 13 50 19 42 16 60 31 118 99 9 12 17 27 17 34 0 7 3 14 8 16 4 2
105 197 224 435 l218 431 -121 0 -121 -1 -16 -36 c-9 -20 -15 -39 -14 -43 1
-5 -2 -8 -8 -8 -6 0 -9 -3 -8 -7 1 -5 -13 -39 -31 -78 -18 -38 -44 -95 -58
-125 -85 -185 -117 -244 -121 -225 -2 11 -7 22 -11 25 -4 3 -18 28 -31 55 -14
28 -31 58 -39 68 -8 9 -11 17 -6 17 4 0 3 6 -3 13 -12 15 -38 61 -98 175 -25
48 -56 105 -69 127 l-23 40 -117 2 -116 3 34 -63z"/>
<path d="M10153 3542 l2 -516 103 0 c61 -1 103 3 103 9 1 6 3 202 4 437 0 235
4 430 8 434 8 8 525 9 533 1 3 -3 6 -202 6 -441 0 -240 3 -437 6 -437 23 -4
202 -3 203 1 1 3 3 235 3 517 l2 511 -487 0 -488 0 2 -516z"/>
<path d="M13489 4057 c-1 -1 -2 -232 -3 -514 -1 -452 0 -512 14 -515 8 -2 56
-4 105 -3 l90 0 1 438 c1 241 4 441 7 444 9 8 526 8 534 -1 4 -4 8 -199 9
-434 1 -235 2 -432 3 -437 1 -8 161 -13 202 -6 4 1 7 52 6 114 0 62 3 118 7
125 4 7 4 12 -1 12 -4 0 -7 175 -7 389 l2 389 -484 0 c-266 0 -485 -1 -485 -1z"/>
</g>
</svg>
