<?xml version="1.0" standalone="no"?>
<!DOCTYPE svg PUBLIC "-//W3C//DTD SVG 20010904//EN"
 "http://www.w3.org/TR/2001/REC-SVG-20010904/DTD/svg10.dtd">
<svg version="1.0" xmlns="http://www.w3.org/2000/svg"
 width="1520.000000pt" height="1520.000000pt" viewBox="0 0 1520.000000 1520.000000"
 preserveAspectRatio="xMidYMid meet">
<metadata>
Created by potrace 1.14, written by Peter Selinger 2001-2017
</metadata>
<g transform="translate(0.000000,1520.000000) scale(0.100000,-0.100000)"
fill="#000000" stroke="none">
<path d="M7219 12316 c-2 -3 -18 -7 -34 -10 -38 -7 -122 -24 -155 -32 -14 -4
-34 -7 -45 -9 -24 -2 -98 -17 -157 -30 -13 -3 -36 -8 -53 -11 -16 -3 -64 -12
-105 -21 -41 -8 -84 -17 -95 -19 -11 -2 -31 -6 -45 -10 -14 -3 -36 -7 -50 -9
-14 -2 -36 -6 -50 -9 -70 -16 -98 -21 -151 -30 -19 -3 -44 -8 -56 -11 -13 -3
-33 -7 -45 -10 -13 -3 -38 -8 -57 -11 -40 -7 -52 -9 -111 -23 -25 -5 -61 -13
-80 -16 -19 -3 -69 -13 -110 -22 -41 -8 -86 -17 -100 -19 -23 -4 -220 -44
-295 -59 -16 -4 -39 -8 -50 -10 -11 -2 -30 -6 -41 -9 -12 -2 -37 -7 -55 -10
-19 -3 -45 -8 -59 -11 -23 -5 -82 -17 -150 -30 -14 -3 -36 -7 -50 -10 -14 -3
-36 -7 -50 -10 -14 -3 -59 -12 -100 -20 -41 -8 -85 -17 -98 -20 -13 -2 -31 -6
-40 -9 -9 -3 -33 -8 -52 -10 -19 -3 -66 -12 -105 -20 -38 -8 -83 -17 -100 -20
-16 -3 -75 -15 -130 -27 -55 -11 -111 -23 -125 -25 -14 -2 -36 -7 -50 -10 -14
-3 -36 -8 -50 -10 -14 -3 -38 -7 -55 -11 -40 -9 -34 -8 -90 -18 -27 -4 -54 -9
-60 -11 -5 -1 -25 -5 -43 -8 -18 -4 -108 -22 -200 -41 -92 -19 -180 -36 -197
-39 -16 -3 -41 -8 -55 -11 -14 -3 -36 -7 -50 -10 -14 -2 -47 -9 -75 -15 -27
-5 -62 -12 -77 -15 -48 -9 -82 -16 -128 -27 -25 -5 -58 -12 -75 -15 -16 -2
-61 -11 -100 -20 -38 -8 -81 -16 -95 -18 -14 -2 -38 -6 -55 -10 -67 -13 -82
-16 -147 -30 -31 -6 -167 -34 -198 -40 -14 -3 -49 -10 -77 -16 -29 -5 -65 -12
-80 -14 -16 -2 -28 -4 -28 -5 0 -1 -9 -3 -20 -5 -11 -3 -101 -21 -200 -40 -99
-20 -189 -38 -200 -40 -34 -8 -141 -29 -210 -42 -47 -8 -60 -11 -60 -13 0 -1
-11 -4 -25 -5 -38 -6 -67 -11 -175 -34 -97 -21 -149 -31 -190 -37 -11 -1 -20
-3 -20 -4 0 -2 -9 -4 -20 -6 -46 -7 -84 -14 -150 -28 -38 -8 -81 -17 -95 -19
-14 -3 -59 -12 -100 -20 -71 -15 -92 -19 -157 -33 -16 -3 -59 -11 -96 -19 -38
-8 -72 -14 -75 -13 -4 0 -9 -1 -12 -2 -8 -3 -42 -10 -70 -15 -14 -2 -25 -5
-25 -6 0 -1 -9 -3 -20 -4 -11 -1 -56 -10 -100 -19 -44 -9 -91 -18 -105 -21
-14 -3 -38 -8 -55 -11 -16 -4 -36 -7 -42 -7 -10 0 -13 -66 -13 -296 l0 -296
7415 0 c4078 0 7416 2 7416 5 1 3 2 134 3 293 l2 287 -36 10 c-19 5 -48 11
-65 14 -16 3 -43 8 -60 11 -75 14 -242 46 -265 49 -14 3 -25 5 -25 6 0 1 -13
4 -30 6 -35 4 -70 11 -105 19 -14 3 -34 8 -45 9 -55 10 -113 21 -165 32 -14 3
-36 7 -50 9 -14 2 -36 7 -50 10 -14 3 -42 7 -64 10 -21 3 -41 7 -45 9 -3 2
-22 7 -41 10 -49 8 -91 16 -120 21 -14 3 -36 8 -50 10 -14 3 -38 8 -55 11 -16
4 -39 8 -50 9 -19 3 -98 19 -155 30 -14 3 -38 7 -55 10 -32 6 -64 12 -105 21
-28 6 -61 12 -105 19 -16 3 -66 12 -110 21 -44 8 -93 18 -110 20 -16 3 -61 12
-100 21 -38 8 -81 16 -95 19 -14 2 -36 7 -48 10 -13 2 -42 7 -64 10 -47 7 -73
12 -73 14 0 1 -13 4 -30 6 -16 3 -61 11 -100 19 -38 8 -86 17 -105 20 -19 3
-78 14 -130 25 -52 10 -108 21 -125 24 -16 2 -55 10 -85 16 -30 6 -66 13 -80
15 -14 2 -59 11 -100 19 -41 8 -88 17 -105 20 -16 3 -64 12 -105 20 -41 9 -84
17 -95 20 -11 2 -40 7 -65 11 -25 4 -54 9 -65 11 -48 10 -72 14 -100 19 -16 3
-61 12 -100 20 -38 8 -81 16 -95 19 -14 2 -88 16 -165 31 -77 15 -149 29 -160
31 -11 2 -32 6 -47 9 -16 3 -38 7 -50 9 -51 9 -204 38 -223 43 -11 2 -31 6
-45 8 -22 4 -89 17 -146 29 -12 2 -37 7 -55 10 -19 3 -45 8 -59 11 -14 4 -36
8 -50 10 -14 2 -38 6 -55 9 -44 10 -435 84 -470 90 -16 3 -55 10 -85 16 -30 6
-66 13 -80 16 -14 2 -36 7 -50 9 -14 3 -36 7 -50 10 -14 2 -38 7 -55 10 -16 4
-39 8 -50 10 -11 2 -31 6 -45 10 -14 3 -50 9 -80 15 -58 10 -84 15 -165 30
-27 5 -62 12 -78 14 -15 3 -35 7 -45 10 -9 3 -33 8 -52 10 -20 3 -47 7 -60 10
-45 10 -150 30 -215 41 -22 4 -43 9 -46 11 -4 2 -27 7 -50 10 -72 10 -84 12
-84 14 0 1 -11 3 -25 6 -86 15 -124 22 -180 34 -25 5 -58 12 -75 15 -28 5 -45
8 -105 20 -14 2 -41 7 -60 10 -19 3 -42 8 -50 10 -17 5 -46 10 -140 26 -36 6
-78 14 -95 19 -16 5 -52 12 -79 15 -27 3 -53 8 -57 11 -12 7 -104 16 -110 10z
m121 -160 c14 -2 37 -7 53 -10 39 -9 73 -15 102 -20 14 -3 74 -14 133 -25 59
-11 118 -22 132 -25 14 -2 45 -9 70 -14 25 -6 63 -13 86 -17 22 -3 55 -10 72
-15 18 -5 32 -6 32 -4 0 3 5 2 12 -2 6 -4 23 -8 37 -10 14 -1 42 -5 61 -9 19
-4 44 -9 55 -10 20 -4 107 -20 155 -30 14 -3 41 -8 60 -11 19 -3 51 -9 70 -14
19 -5 51 -11 70 -14 19 -3 46 -8 60 -11 76 -15 128 -25 152 -29 15 -3 63 -12
105 -20 43 -9 89 -18 103 -20 21 -4 240 -46 315 -61 11 -2 36 -6 55 -9 19 -3
45 -8 58 -11 47 -11 58 -13 102 -20 25 -4 52 -9 60 -11 54 -11 220 -44 245
-48 42 -7 86 -15 111 -21 12 -3 39 -7 60 -11 21 -3 71 -12 109 -20 39 -8 84
-17 100 -20 33 -6 212 -40 260 -49 49 -10 74 -15 98 -19 12 -1 36 -6 52 -9 17
-4 41 -9 55 -11 14 -3 34 -7 45 -9 11 -2 36 -7 55 -11 19 -3 46 -8 60 -11 14
-3 39 -8 55 -11 17 -3 49 -9 73 -15 24 -5 48 -7 53 -4 5 4 9 2 9 -3 0 -5 6 -9
13 -9 17 0 75 -10 160 -28 60 -12 230 -44 327 -62 14 -2 57 -10 95 -18 39 -8
84 -16 100 -19 17 -3 41 -7 55 -10 42 -10 73 -16 120 -22 25 -3 49 -9 54 -12
5 -3 23 -6 40 -8 17 -1 74 -12 126 -23 52 -11 113 -22 135 -26 22 -3 48 -8 58
-11 11 -3 29 -7 40 -9 12 -2 49 -9 82 -15 33 -6 74 -13 90 -16 17 -2 41 -7 55
-11 14 -3 32 -7 40 -8 13 -2 60 -11 160 -30 14 -3 36 -7 50 -10 14 -3 39 -8
55 -10 17 -3 53 -10 80 -15 53 -12 112 -21 133 -23 6 0 12 -3 12 -6 0 -3 10
-6 23 -7 21 0 59 -7 117 -19 43 -9 74 -15 105 -20 17 -3 50 -10 75 -15 59 -13
97 -20 140 -26 19 -2 42 -7 50 -9 8 -2 29 -7 46 -9 17 -3 66 -13 110 -21 43
-9 88 -18 99 -19 39 -6 140 -26 165 -32 14 -4 37 -7 53 -8 15 0 27 -3 27 -6 0
-3 8 -6 18 -6 9 -1 31 -4 47 -7 17 -3 44 -9 60 -11 17 -3 41 -8 55 -12 14 -3
36 -7 50 -9 14 -1 36 -5 50 -8 14 -4 37 -9 52 -11 15 -3 63 -12 105 -20 43 -9
90 -18 106 -20 72 -12 68 -1 65 -174 l-3 -157 -7270 0 -7269 0 -1 140 c-1 165
2 184 24 184 9 0 34 4 56 10 53 13 103 23 140 26 17 2 37 5 45 8 8 3 40 11 70
17 53 10 78 15 119 24 10 2 36 7 57 10 22 4 55 11 74 16 19 5 52 11 72 14 21
3 57 10 80 15 24 6 59 13 78 16 19 3 42 8 50 10 8 2 31 7 50 10 19 3 42 8 50
10 8 2 29 7 45 10 17 2 41 7 55 10 14 3 41 8 60 11 46 8 65 12 65 14 0 1 11 3
25 6 14 2 59 11 100 20 41 9 84 17 95 18 11 2 45 8 75 15 30 6 65 13 78 16 13
2 103 20 200 39 97 20 188 38 202 40 14 3 95 19 180 36 85 18 169 34 185 37
42 7 60 11 60 13 0 1 11 3 25 6 14 2 104 20 200 39 96 19 187 37 203 40 15 3
37 7 50 10 12 2 33 6 47 9 14 3 72 15 130 26 58 12 116 23 130 26 14 2 45 9
70 14 55 13 85 19 129 26 18 3 43 8 55 10 11 3 32 7 46 10 14 2 36 7 50 10 14
3 39 8 55 11 17 3 62 11 100 20 67 14 86 18 138 27 12 2 45 9 72 16 28 6 68
13 90 16 22 3 47 8 55 11 8 3 29 7 45 9 17 3 37 8 45 11 13 5 63 13 98 15 6 1
12 5 12 10 0 5 4 7 9 3 5 -3 31 0 58 6 26 6 59 13 73 15 14 2 45 9 70 14 25 5
59 12 75 15 31 5 62 11 105 20 14 3 41 8 60 12 46 9 50 10 53 12 1 2 13 4 27
6 14 2 61 11 105 20 44 9 94 19 110 22 17 2 62 11 100 20 39 8 77 16 85 18 30
6 105 19 115 20 6 1 35 7 65 13 30 7 66 14 80 17 24 4 46 9 100 21 14 3 38 8
54 10 16 3 59 12 95 20 36 8 75 16 86 18 115 19 133 22 138 25 1 2 13 4 27 6
14 2 93 18 175 35 166 35 176 37 222 43 17 3 36 8 41 11 5 3 25 6 45 8 21 1
37 5 37 8 0 4 10 6 23 5 12 -1 33 2 47 7 14 5 39 11 55 13 17 1 48 7 70 13 22
6 54 13 70 16 17 2 52 9 80 14 27 6 53 8 57 6 5 -3 8 -1 8 4 0 6 6 9 13 9 17
-2 158 24 182 33 19 8 92 6 145 -4z"/>
<path d="M0 9490 l0 -76 28 1 c22 1 97 -14 203 -39 19 -5 94 -40 124 -59 48
-29 132 -127 157 -183 41 -90 40 -87 52 -184 7 -53 8 -3379 1 -3430 -2 -19 -7
-46 -11 -60 -3 -14 -7 -32 -8 -40 -1 -9 -5 -20 -8 -25 -3 -6 -11 -27 -17 -47
-7 -21 -17 -38 -22 -38 -5 0 -9 -6 -9 -13 0 -26 -75 -105 -138 -147 -39 -26
-153 -71 -192 -76 -8 -1 -37 -5 -65 -9 -27 -4 -60 -7 -72 -7 -22 0 -23 -5 -23
-73 l0 -72 1128 1 1127 1 0 69 c0 77 7 70 -85 80 -25 3 -56 8 -70 11 -14 3
-36 8 -50 11 -35 7 -142 58 -169 80 -108 89 -156 176 -187 334 -9 45 -10 3237
-1 3310 9 79 18 120 28 126 4 2 6 11 3 18 -3 7 2 19 11 26 8 7 15 19 15 27 0
39 126 170 189 196 35 15 61 24 71 25 3 0 19 6 35 12 54 21 86 22 453 25 373
3 462 -4 545 -38 20 -9 37 -14 37 -11 0 9 87 -51 128 -90 71 -66 122 -176 139
-296 4 -25 7 -109 7 -187 1 -79 5 -143 9 -143 5 0 5 -5 1 -12 -11 -18 -11
-108 0 -108 6 0 5 -5 -1 -11 -7 -7 -8 -21 -3 -40 5 -16 6 -29 2 -29 -9 0 -7
-133 2 -148 4 -7 4 -12 -1 -12 -4 0 -8 -63 -8 -140 0 -77 4 -140 8 -140 5 0 5
-5 1 -12 -11 -18 -11 -108 0 -108 6 0 5 -5 -1 -11 -7 -7 -8 -21 -3 -40 5 -16
6 -29 2 -29 -4 0 -6 -73 -5 -162 2 -90 3 -167 3 -173 0 -5 -1 -28 -3 -50 -1
-22 0 -52 4 -67 4 -16 5 -28 1 -28 -4 0 -7 -63 -7 -140 0 -77 4 -140 8 -140 5
0 5 -5 1 -12 -11 -18 -11 -108 0 -108 6 0 5 -5 -1 -11 -7 -7 -8 -21 -3 -40 5
-16 6 -29 2 -29 -4 0 -6 -73 -5 -162 2 -90 3 -167 3 -173 0 -5 0 -75 0 -155 0
-80 0 -152 0 -160 0 -8 -1 -33 -3 -55 -1 -22 0 -52 4 -67 4 -16 5 -28 1 -28
-4 0 -7 -84 -8 -188 -1 -154 -7 -257 -14 -257 -1 0 -3 -11 -6 -24 -5 -28 -53
-139 -69 -159 -32 -42 -86 -93 -126 -120 -58 -39 -175 -78 -260 -87 -100 -10
-96 -7 -93 -78 1 -34 2 -65 3 -68 1 -3 507 -6 1126 -6 l1125 0 1 46 c2 59 -1
84 -9 93 -4 3 -34 9 -67 12 -66 6 -70 7 -135 25 -135 37 -249 131 -301 247
-61 134 -58 53 -58 1904 0 1659 0 1697 20 1779 11 47 25 91 31 98 6 7 7 13 2
13 -5 0 -4 4 1 8 6 4 16 19 24 35 31 60 165 177 203 177 8 0 18 4 24 10 12 12
163 50 214 53 21 2 42 6 45 9 9 9 12 117 4 130 -6 10 -96 14 -106 4 -3 -2 -15
-1 -28 4 -12 5 -39 5 -59 0 -20 -4 -36 -5 -36 -1 0 4 -26 5 -57 3 -32 -2 -62
-3 -68 -3 -88 3 -112 3 -120 1 -5 -1 -14 -1 -20 0 -24 5 -134 2 -143 -4 -6 -3
-13 -3 -16 2 -5 8 -85 7 -93 -2 -3 -3 -15 -1 -28 4 -12 5 -39 5 -59 0 -20 -4
-36 -5 -36 -1 0 4 -26 5 -57 3 -32 -2 -62 -3 -68 -3 -88 3 -112 3 -120 1 -5
-1 -14 -1 -20 0 -24 5 -134 2 -143 -4 -6 -3 -13 -3 -16 2 -5 8 -85 7 -93 -2
-3 -3 -15 -1 -28 4 -12 5 -39 5 -59 0 -20 -4 -36 -5 -36 -1 0 4 -26 5 -57 3
-32 -2 -62 -3 -68 -3 -88 3 -112 3 -120 1 -5 -1 -14 -1 -20 0 -24 5 -134 2
-143 -4 -6 -3 -13 -3 -16 2 -5 8 -85 7 -93 -2 -3 -3 -15 -1 -28 4 -12 5 -39 5
-59 0 -20 -4 -36 -5 -36 -1 0 4 -26 5 -57 3 -32 -2 -62 -3 -68 -3 -88 3 -112
3 -120 1 -5 -1 -14 -1 -20 0 -24 5 -134 2 -143 -4 -6 -3 -13 -3 -16 2 -5 8
-85 7 -93 -2 -3 -3 -15 -1 -28 4 -12 5 -39 5 -59 0 -20 -4 -36 -5 -36 -1 0 4
-26 5 -57 3 -32 -2 -62 -3 -68 -3 -88 3 -112 3 -120 1 -5 -1 -14 -1 -20 0 -24
5 -134 2 -143 -4 -6 -3 -13 -3 -16 2 -5 8 -85 7 -93 -2 -3 -3 -15 -1 -28 4
-12 5 -39 5 -59 0 -20 -4 -36 -5 -36 -1 0 4 -26 5 -57 3 -32 -2 -62 -3 -68 -3
-88 3 -112 3 -120 1 -5 -1 -14 -1 -20 0 -24 5 -134 2 -143 -4 -6 -3 -13 -3
-16 2 -5 8 -85 7 -93 -2 -3 -3 -15 -1 -28 4 -12 5 -39 5 -59 0 -20 -4 -36 -5
-36 -1 0 4 -26 5 -57 3 -32 -2 -62 -3 -68 -3 -88 3 -112 3 -120 1 -5 -1 -14
-1 -20 0 -24 5 -134 2 -143 -4 -6 -3 -13 -3 -16 2 -5 8 -85 7 -93 -2 -3 -3
-15 -1 -28 4 -12 5 -39 5 -59 0 -20 -4 -36 -5 -36 -1 0 4 -26 5 -57 3 -32 -2
-62 -3 -68 -3 -88 3 -112 3 -120 1 -5 -1 -12 -1 -15 0 -3 1 -20 2 -38 3 l-32
2 0 -75z"/>
<path d="M5470 9560 c0 -5 -9 -6 -20 -3 -19 5 -20 0 -20 -66 0 -60 3 -71 18
-73 24 -2 46 -6 52 -8 3 -1 19 -3 35 -5 39 -4 86 -15 97 -21 4 -3 17 -7 28 -9
39 -7 141 -65 182 -103 84 -77 136 -185 153 -322 9 -71 11 -3299 2 -3408 -9
-106 -52 -234 -94 -279 -6 -7 -20 -23 -30 -36 -30 -37 -98 -86 -157 -112 -31
-14 -56 -22 -56 -19 0 4 -6 2 -13 -4 -7 -6 -31 -13 -52 -16 -22 -2 -40 -5 -40
-7 0 -1 -16 -3 -35 -4 -99 -9 -90 -1 -90 -81 l0 -71 1125 0 1125 0 5 21 c2 12
3 44 2 71 -2 45 -4 50 -27 52 -74 7 -97 10 -108 17 -7 4 -12 5 -12 2 0 -2 -15
0 -32 5 -18 6 -44 12 -58 15 -44 9 -140 67 -186 111 -46 46 -106 141 -98 155
3 4 1 8 -5 8 -9 0 -19 32 -28 90 -2 14 -6 39 -9 55 -8 43 -8 3274 0 3310 34
161 61 220 138 297 31 31 79 67 105 79 60 28 51 26 153 48 76 17 124 19 460
17 403 -3 430 -6 545 -60 130 -61 232 -209 252 -366 4 -25 7 -775 9 -1666 2
-1627 2 -1642 -29 -1770 -18 -75 -99 -189 -172 -244 -24 -18 -114 -60 -135
-63 -8 -2 -20 -6 -26 -9 -17 -11 -149 -31 -194 -30 -13 0 -15 -12 -14 -66 1
-37 2 -70 3 -73 0 -3 507 -6 1126 -6 l1125 0 0 73 c0 69 -1 72 -25 76 -14 3
-25 1 -25 -4 0 -5 -5 -6 -11 -2 -6 3 -28 8 -48 11 -20 2 -43 7 -51 10 -8 3
-18 6 -22 5 -11 -2 -90 27 -137 50 -57 29 -142 111 -174 168 -24 42 -46 102
-64 167 -4 15 -9 798 -10 1738 -2 1504 -1 1719 13 1785 20 98 18 91 37 126 9
17 13 34 10 38 -4 3 -1 6 5 6 6 0 14 9 17 20 11 34 111 127 166 155 90 46 186
72 289 78 24 2 25 5 28 74 3 80 -1 84 -69 73 -19 -4 -45 -3 -56 1 -11 4 -37 4
-57 -1 -20 -4 -36 -5 -36 -1 0 4 -26 5 -57 3 -32 -2 -62 -3 -68 -3 -5 0 -33 1
-61 2 -28 1 -56 -1 -62 -5 -6 -3 -13 -3 -16 2 -5 8 -85 7 -93 -2 -3 -3 -15 -1
-28 4 -12 5 -39 5 -59 0 -20 -4 -36 -5 -36 -1 0 7 -109 5 -117 -3 -3 -3 -15
-1 -28 4 -12 5 -39 5 -59 0 -20 -4 -36 -5 -36 -1 0 3 -14 6 -30 7 -17 1 -30
-3 -30 -8 0 -5 -7 -5 -16 0 -9 5 -32 6 -50 2 -19 -4 -34 -5 -34 -1 0 3 -14 6
-30 7 -17 1 -30 -3 -30 -8 0 -5 -7 -5 -16 0 -9 5 -32 6 -50 2 -19 -4 -34 -5
-34 -1 0 3 -14 6 -30 7 -17 1 -30 -3 -30 -8 0 -5 -7 -5 -16 0 -9 5 -32 6 -50
2 -19 -4 -34 -5 -34 -1 0 3 -14 6 -30 7 -17 1 -30 -2 -30 -5 0 -7 -86 -5 -98
3 -4 3 -25 1 -45 -4 -20 -4 -37 -5 -37 -1 0 4 -26 5 -57 3 -32 -2 -62 -3 -68
-3 -5 0 -33 1 -61 2 -28 1 -56 -1 -62 -5 -6 -3 -13 -3 -16 2 -5 8 -85 7 -93
-2 -3 -3 -15 -1 -28 4 -12 5 -39 5 -59 0 -20 -4 -36 -5 -36 -1 0 4 -26 5 -57
3 -32 -2 -62 -3 -68 -3 -5 0 -33 1 -61 2 -28 1 -56 -1 -62 -5 -6 -3 -13 -3
-16 2 -5 8 -85 7 -93 -2 -3 -3 -15 -1 -28 4 -12 5 -39 5 -59 0 -20 -4 -36 -5
-36 -1 0 7 -109 5 -117 -3 -3 -3 -15 -1 -28 4 -12 5 -39 5 -59 0 -20 -4 -36
-5 -36 -1 0 3 -14 6 -30 7 -17 1 -30 -3 -30 -8 0 -5 -7 -5 -16 0 -9 5 -32 6
-50 2 -19 -4 -34 -5 -34 -1 0 3 -14 6 -30 7 -17 1 -30 -3 -30 -8 0 -5 -7 -5
-16 0 -9 5 -32 6 -50 2 -19 -4 -34 -5 -34 -1 0 3 -14 6 -30 7 -17 1 -30 -3
-30 -8 0 -5 -7 -5 -16 0 -9 5 -32 6 -50 2 -19 -4 -34 -5 -34 -1 0 3 -14 6 -30
7 -17 1 -30 -2 -30 -5 0 -7 -86 -5 -98 3 -4 3 -25 1 -45 -4 -20 -4 -37 -5 -37
-1 0 4 -26 5 -57 3 -32 -2 -62 -3 -68 -3 -5 0 -33 1 -61 2 -28 1 -56 -1 -62
-5 -6 -3 -13 -3 -16 2 -5 8 -85 7 -93 -2 -3 -3 -15 -1 -28 4 -12 5 -39 5 -59
0 -20 -4 -36 -5 -36 -1 0 4 -26 5 -57 3 -32 -2 -62 -3 -68 -3 -5 0 -33 1 -61
2 -28 1 -56 -1 -62 -5 -6 -3 -13 -3 -16 2 -5 8 -85 7 -93 -2 -3 -3 -15 -1 -28
4 -12 5 -39 5 -59 0 -20 -4 -36 -5 -36 -1 0 7 -109 5 -117 -3 -3 -3 -15 -1
-28 4 -12 5 -39 5 -59 0 -20 -4 -36 -5 -36 -1 0 3 -14 6 -30 7 -17 1 -30 -3
-30 -8 0 -5 -7 -5 -16 0 -9 5 -32 6 -50 2 -19 -4 -34 -5 -34 -1 0 3 -14 6 -30
7 -17 1 -30 -2 -30 -6z"/>
<path d="M10910 9561 c0 -4 -18 -5 -40 -3 -44 4 -43 7 -42 -73 1 -76 -1 -74
37 -71 20 2 38 -1 41 -6 3 -4 9 -6 13 -4 15 10 138 -26 208 -60 71 -34 138
-90 181 -152 20 -28 61 -113 62 -127 0 -3 0 -6 1 -7 0 -2 2 -10 4 -18 2 -8 7
-26 10 -40 4 -14 8 -61 11 -105 2 -44 5 -101 6 -128 2 -26 -1 -49 -7 -51 -5
-3 -4 -5 2 -5 9 -1 10 -8 4 -23 -5 -13 -5 -32 -1 -43 4 -11 4 -31 0 -44 -3
-13 -3 -46 0 -73 4 -26 3 -53 -1 -60 -4 -6 -4 -19 1 -28 5 -9 6 -21 2 -27 -4
-6 -5 -48 -2 -92 3 -49 1 -83 -5 -85 -5 -3 -4 -5 2 -5 9 -1 10 -8 4 -23 -5
-13 -5 -32 -1 -43 4 -11 4 -31 0 -44 -3 -13 -3 -46 0 -73 4 -26 3 -53 -1 -60
-4 -6 -4 -19 1 -28 5 -9 6 -21 2 -27 -4 -6 -5 -48 -2 -92 3 -49 1 -83 -5 -85
-5 -3 -4 -5 2 -5 9 -1 10 -8 4 -23 -5 -13 -5 -32 -1 -43 4 -11 5 -24 2 -29 -4
-8 -4 -47 1 -169 1 -26 -2 -49 -8 -51 -5 -3 -4 -5 2 -5 9 -1 10 -8 4 -23 -5
-13 -5 -32 -1 -43 4 -11 4 -31 0 -44 -3 -13 -3 -46 0 -73 4 -26 3 -53 -1 -60
-4 -6 -4 -19 1 -28 5 -9 6 -21 2 -27 -4 -6 -5 -48 -2 -92 3 -49 1 -83 -5 -85
-5 -3 -4 -5 2 -5 9 -1 10 -8 4 -23 -5 -13 -5 -32 -1 -43 4 -11 4 -31 0 -44 -3
-13 -3 -46 0 -73 4 -26 3 -53 -1 -60 -4 -6 -4 -19 1 -28 5 -9 6 -21 2 -27 -4
-6 -5 -48 -2 -92 3 -49 1 -83 -5 -85 -5 -3 -4 -5 2 -5 9 -1 10 -8 4 -23 -5
-13 -5 -32 -1 -43 4 -11 5 -24 2 -29 -4 -8 -4 -47 1 -169 1 -26 -2 -49 -8 -51
-5 -3 -4 -5 2 -5 9 -1 10 -8 4 -23 -5 -13 -5 -32 -1 -43 4 -11 4 -32 -1 -47
-4 -14 -6 -28 -4 -30 3 -3 5 -46 5 -110 0 -10 0 -26 0 -35 0 -10 0 -49 0 -88
1 -38 3 -78 6 -89 4 -10 2 -16 -2 -13 -5 3 -9 -32 -10 -76 -1 -45 -4 -95 -7
-112 -4 -16 -9 -43 -13 -60 -20 -93 -106 -216 -189 -272 -34 -22 -127 -63
-159 -69 -11 -2 -33 -6 -48 -9 -50 -11 -93 -17 -120 -16 -16 1 -28 -4 -29 -11
-1 -21 -1 -92 0 -114 l1 -21 1138 3 c625 2 1162 5 1192 8 30 2 96 7 145 10 50
4 106 9 125 11 19 3 58 7 85 9 135 13 348 54 525 100 115 30 410 155 418 177
2 5 8 9 14 9 6 0 37 18 69 40 165 113 298 265 377 433 47 100 91 266 98 367 1
19 3 35 4 35 6 0 4 218 -2 221 -4 3 -5 13 -3 23 5 26 -30 194 -54 265 -27 78
-104 219 -150 276 -96 119 -223 227 -359 303 -88 49 -210 106 -240 113 -8 1
-21 6 -30 10 -9 4 -35 13 -57 20 -116 35 -151 46 -165 48 -13 3 -86 18 -100
21 -3 1 -27 5 -55 9 -27 4 -57 10 -65 13 -8 3 -28 7 -45 8 -16 1 -57 6 -90 10
-33 4 -78 9 -100 12 -22 2 -247 6 -500 8 -253 3 -468 5 -477 5 -16 0 -17 53
-16 808 0 445 5 835 9 866 16 99 62 148 164 176 40 10 822 8 875 -3 14 -3 37
-8 53 -11 15 -3 39 -8 55 -11 15 -3 34 -8 42 -12 8 -3 20 -7 25 -8 48 -7 236
-90 243 -107 2 -4 8 -8 14 -8 16 0 129 -91 186 -150 29 -30 73 -83 98 -118 46
-64 151 -257 158 -289 1 -10 9 -31 16 -48 16 -38 69 -219 76 -260 2 -16 7 -38
10 -47 3 -9 7 -26 9 -37 3 -12 7 -31 10 -42 2 -12 6 -24 9 -26 7 -7 126 -7
133 1 10 10 9 1397 -1 1404 -15 9 -57 9 -93 1 -18 -4 -33 -4 -33 0 0 4 -26 5
-57 3 -32 -2 -62 -3 -68 -3 -5 0 -33 1 -61 2 -28 1 -56 -1 -62 -5 -6 -3 -13
-3 -16 2 -5 8 -85 7 -93 -2 -3 -3 -15 -1 -28 4 -12 5 -39 5 -59 0 -20 -4 -36
-5 -36 -1 0 4 -26 5 -57 3 -32 -2 -62 -3 -68 -3 -5 0 -33 1 -61 2 -28 1 -56
-1 -62 -5 -6 -3 -13 -3 -16 2 -5 8 -85 7 -93 -2 -3 -3 -15 -1 -28 4 -12 5 -39
5 -59 0 -20 -4 -36 -5 -36 -1 0 7 -109 5 -117 -3 -3 -3 -15 -1 -28 4 -12 5
-39 5 -59 0 -20 -4 -36 -5 -36 -1 0 3 -14 6 -30 7 -17 1 -30 -3 -30 -8 0 -5
-7 -5 -16 0 -9 5 -32 6 -50 2 -19 -4 -34 -5 -34 -1 0 3 -14 6 -30 7 -17 1 -30
-3 -30 -8 0 -5 -7 -5 -16 0 -9 5 -32 6 -50 2 -19 -4 -34 -5 -34 -1 0 3 -14 6
-30 7 -17 1 -30 -3 -30 -8 0 -5 -7 -5 -16 0 -9 5 -32 6 -50 2 -19 -4 -34 -5
-34 -1 0 3 -14 6 -30 7 -17 1 -30 -2 -30 -5 0 -7 -86 -5 -98 3 -4 3 -25 1 -45
-4 -20 -4 -37 -5 -37 -1 0 4 -26 5 -57 3 -32 -2 -62 -3 -68 -3 -5 0 -33 1 -61
2 -28 1 -56 -1 -62 -5 -6 -3 -13 -3 -16 2 -5 8 -85 7 -93 -2 -3 -3 -15 -1 -28
4 -12 5 -39 5 -59 0 -20 -4 -36 -5 -36 -1 0 4 -26 5 -57 3 -32 -2 -62 -3 -68
-3 -5 0 -33 1 -61 2 -28 1 -56 -1 -62 -5 -6 -3 -13 -3 -16 2 -5 8 -85 7 -93
-2 -3 -3 -15 -1 -28 4 -12 5 -39 5 -59 0 -20 -4 -36 -5 -36 -1 0 7 -109 5
-117 -3 -3 -3 -15 -1 -28 4 -12 5 -39 5 -59 0 -20 -4 -36 -5 -36 -1 0 3 -14 6
-30 7 -17 1 -30 -3 -30 -8 0 -5 -7 -5 -16 0 -9 5 -32 6 -50 2 -19 -4 -34 -5
-34 -1 0 3 -14 6 -30 7 -17 1 -30 -3 -30 -8 0 -5 -7 -5 -16 0 -9 5 -32 6 -50
2 -19 -4 -34 -5 -34 -1 0 3 -14 6 -30 7 -17 1 -30 -3 -30 -8 0 -5 -7 -5 -16 0
-9 5 -32 6 -50 2 -19 -4 -34 -5 -34 -1 0 3 -14 6 -30 7 -17 1 -30 -2 -30 -5z
m2195 -2337 c99 -16 107 -17 178 -42 198 -70 369 -238 457 -448 18 -43 33 -83
35 -89 1 -5 5 -17 8 -25 4 -8 8 -26 11 -40 2 -14 7 -32 10 -40 17 -50 32 -226
31 -368 -2 -116 -12 -269 -20 -282 -2 -3 -6 -25 -10 -50 -4 -24 -11 -52 -16
-62 -5 -10 -8 -18 -5 -18 2 0 -9 -37 -25 -82 -82 -229 -237 -392 -453 -473
-71 -27 -81 -29 -211 -50 -84 -13 -300 -14 -365 -2 -127 25 -172 81 -208 260
-5 27 -10 425 -10 936 l-1 889 257 -1 c153 0 289 -5 337 -13z"/>
<path d="M692 3541 l3 -516 95 0 c52 -1 100 0 106 2 7 3 10 139 10 434 -1 237
2 436 6 442 4 7 100 10 287 10 155 0 284 4 287 8 3 5 1 9 -3 9 -9 0 -8 74 2
90 3 6 1 10 -5 10 -6 0 -8 4 -5 10 11 17 -35 19 -413 18 l-372 -2 2 -515z"/>
<path d="M3752 3542 l3 -516 103 -1 c56 0 103 2 103 5 1 3 2 88 3 190 l1 185
36 1 c19 0 41 4 47 8 7 4 12 2 12 -4 0 -6 4 -9 8 -6 4 3 69 6 143 7 121 2 175
8 219 26 8 3 20 7 25 7 19 2 100 46 125 69 57 50 87 114 93 197 3 39 0 60 -16
125 -7 24 -58 94 -89 120 -18 15 -55 39 -83 51 -97 45 -152 51 -453 51 l-282
0 2 -515z m538 365 c54 -11 80 -20 80 -27 0 -5 8 -11 18 -14 32 -11 65 -73 68
-130 3 -72 -28 -126 -93 -157 -44 -21 -64 -23 -220 -25 -95 -2 -174 0 -174 4
-1 4 -2 84 -3 177 l-1 170 40 5 c48 6 250 4 285 -3z"/>
<path d="M6913 3997 c66 -120 90 -163 141 -252 29 -49 55 -97 59 -105 4 -8 11
-22 17 -30 5 -8 46 -79 90 -158 l81 -142 -19 -43 c-40 -88 -80 -114 -177 -112
l-50 1 -1 -68 c-1 -54 3 -69 15 -72 35 -11 159 -1 205 16 46 16 116 57 116 68
0 3 11 18 25 34 14 16 25 35 25 42 0 7 3 14 8 16 4 2 105 197 224 434 l217
432 -120 -1 -121 0 -18 -41 c-9 -23 -34 -77 -55 -121 -20 -44 -48 -105 -62
-135 -93 -202 -115 -243 -123 -230 -5 8 -7 17 -4 21 2 4 1 9 -4 11 -8 3 -22
30 -112 205 -25 48 -48 90 -51 93 -3 3 -18 30 -33 60 -15 30 -38 73 -51 95
l-23 40 -116 2 -117 1 34 -61z"/>
<path d="M10151 3545 c0 -385 3 -514 12 -517 7 -3 55 -4 107 -3 l95 0 1 437
c0 241 3 441 7 444 8 8 525 9 533 1 3 -3 6 -203 7 -444 l2 -438 105 0 105 0 0
515 0 515 -487 1 -486 2 -1 -513z"/>
<path d="M13489 4051 c-1 -3 -2 -234 -3 -513 -1 -447 0 -507 14 -510 8 -2 56
-4 105 -3 l90 0 1 438 c1 241 4 441 7 444 9 8 526 8 534 -1 4 -4 8 -204 8
-444 l0 -437 105 0 105 1 1 115 c0 64 4 121 8 127 4 7 4 12 -1 12 -4 0 -7 175
-7 389 l2 388 -484 0 c-266 0 -485 -3 -485 -6z"/>
</g>
</svg>
