<?xml version="1.0" encoding="UTF-8" standalone="no"?>
<!DOCTYPE svg PUBLIC "-//W3C//DTD SVG 1.1//EN" "http://www.w3.org/Graphics/SVG/1.1/DTD/svg11.dtd">
<svg width="100%" height="100%" viewBox="0 0 170 59" version="1.1" xmlns="http://www.w3.org/2000/svg" xmlns:xlink="http://www.w3.org/1999/xlink" xml:space="preserve" style="fill-rule:evenodd;clip-rule:evenodd;">
    <g transform="matrix(1,0,0,1,0,17.2462)">
        <path d="M17.408,29.046L31.513,29.046L31.513,28.151C29.126,28.068 27.933,26.86 27.933,24.528L27.933,4.518C27.933,2.242 29.126,1.034 31.513,0.895L31.513,0L0,0L0,0.895C2.386,1.034 3.58,2.242 3.58,4.518L3.58,24.528C3.58,26.86 2.386,28.068 0,28.151L0,29.046L14.105,29.046L14.105,28.151C11.719,28.068 10.526,26.86 10.526,24.528L10.526,5.455C10.526,3.04 11.719,1.832 14.105,1.832L17.408,1.832C19.794,1.832 20.987,3.04 20.987,5.455L20.987,24.528C20.987,26.86 19.794,28.068 17.408,28.151L17.408,29.046ZM51.349,29.046L65.454,29.046L65.454,28.151C63.068,28.068 61.875,26.86 61.875,24.528L61.875,4.518C61.875,2.242 63.068,1.034 65.454,0.895L65.454,0L33.942,0L33.942,0.895C36.328,1.034 37.521,2.242 37.521,4.518L37.521,24.528C37.521,26.86 36.328,28.068 33.942,28.151L33.942,29.046L48.047,29.046L48.047,28.151C45.661,28.068 44.467,26.86 44.467,24.528L44.467,5.455C44.467,3.04 45.661,1.832 48.047,1.832L51.349,1.832C53.736,1.832 54.929,3.04 54.929,5.455L54.929,24.528C54.929,26.86 53.736,28.068 51.349,28.151L51.349,29.046ZM93.899,20.822C93.899,24.153 92.237,26.471 88.913,27.776C86.726,28.623 83.601,29.046 79.538,29.046L67.671,29.046L67.671,28.151C70.057,28.068 71.25,26.86 71.25,24.528L71.25,4.518C71.25,2.242 70.057,1.034 67.671,0.895L67.671,0L91.896,0L91.896,8.828L91.023,8.828C90.994,8.759 90.938,8.53 90.852,8.141C89.943,3.63 87.45,1.374 83.374,1.374L79.943,1.374C78.963,1.374 78.409,1.707 78.281,2.374C78.224,2.651 78.196,3.158 78.196,3.894L78.196,13.014L82.372,13.014C85.497,13.014 88.068,13.541 90.085,14.596C92.628,15.956 93.899,18.032 93.899,20.822ZM85.163,16.428C86.044,17.567 86.484,19.1 86.484,21.03C86.484,25.43 84.531,27.63 80.625,27.63C79.659,27.63 79.027,27.478 78.729,27.172C78.374,26.797 78.196,25.972 78.196,24.694L78.196,14.513L80.817,14.513C82.734,14.513 84.183,15.151 85.163,16.428Z" style="fill:rgb(28,81,129);"/>
    </g>
    <g transform="matrix(1,0,0,1,108.182,17.2462)">
        <path d="M37.56,3C37.56,3.949 37.322,4.687 36.847,5.213C36.371,5.74 35.698,6.003 34.827,6.003C33.946,6.003 33.269,5.742 32.796,5.219C32.323,4.697 32.087,3.954 32.087,2.992C32.087,2.029 32.324,1.29 32.8,0.774C33.275,0.258 33.954,0 34.835,0C35.704,0 36.375,0.262 36.849,0.786C37.323,1.31 37.56,2.048 37.56,3ZM19.15,4.304L19.733,5.923L20.748,5.923L18.562,0.068L17.523,0.068L15.338,5.923L16.345,5.923L16.916,4.304L19.15,4.304ZM52.71,4.304L53.294,5.923L54.308,5.923L52.123,0.068L51.084,0.068L48.899,5.923L49.906,5.923L50.477,4.304L52.71,4.304ZM3.532,5.923L4.49,5.923L4.49,0.092L0,0.092L0,5.923L0.955,5.923L0.955,0.909L3.532,0.909L3.532,5.923ZM12.024,3.255C12.423,2.931 12.623,2.464 12.623,1.855C12.623,1.275 12.441,0.836 12.078,0.538C11.714,0.241 11.167,0.092 10.438,0.092L8.756,0.092L8.756,5.923L9.711,5.923L9.711,3.742L10.318,3.742C11.056,3.742 11.624,3.579 12.024,3.255ZM25.98,0.092L24.246,0.092L24.246,5.923L26.355,5.923C27.008,5.923 27.517,5.775 27.883,5.479C28.25,5.182 28.433,4.772 28.433,4.248C28.433,3.86 28.336,3.552 28.143,3.325C27.95,3.097 27.648,2.945 27.238,2.868L27.238,2.828C27.568,2.77 27.821,2.627 27.997,2.401C28.173,2.175 28.261,1.892 28.261,1.552C28.261,1.046 28.082,0.677 27.724,0.443C27.365,0.209 26.784,0.092 25.98,0.092ZM41.542,0.092L43.276,0.092C44.08,0.092 44.661,0.209 45.019,0.443C45.378,0.677 45.557,1.046 45.557,1.552C45.557,1.892 45.469,2.175 45.293,2.401C45.117,2.627 44.864,2.77 44.534,2.828L44.534,2.868C44.944,2.945 45.246,3.097 45.439,3.325C45.632,3.552 45.728,3.86 45.728,4.248C45.728,4.772 45.545,5.182 45.179,5.479C44.813,5.775 44.304,5.923 43.651,5.923L41.542,5.923L41.542,0.092ZM58.206,5.923L59.652,3.586L60.627,3.586L60.627,5.923L61.586,5.923L61.586,0.092L59.832,0.092C59.113,0.092 58.569,0.233 58.198,0.515C57.828,0.796 57.643,1.205 57.643,1.739C57.643,2.566 58.016,3.109 58.762,3.367L57.116,5.923L58.206,5.923ZM33.537,4.633C33.247,4.262 33.102,3.718 33.102,3C33.102,2.284 33.247,1.742 33.539,1.372C33.831,1.003 34.263,0.818 34.835,0.818C35.403,0.818 35.829,1.003 36.116,1.372C36.402,1.742 36.545,2.284 36.545,3C36.545,3.726 36.401,4.272 36.112,4.639C35.823,5.006 35.395,5.19 34.827,5.19C34.257,5.19 33.827,5.004 33.537,4.633ZM9.711,2.94L10.218,2.94C10.708,2.94 11.068,2.855 11.297,2.685C11.526,2.514 11.64,2.248 11.64,1.887C11.64,1.552 11.538,1.302 11.333,1.137C11.128,0.972 10.808,0.89 10.374,0.89L9.711,0.89L9.711,2.94ZM18.898,3.482L18.351,1.895C18.311,1.788 18.255,1.621 18.185,1.392C18.114,1.163 18.066,0.996 18.039,0.89C17.967,1.217 17.862,1.574 17.723,1.963L17.196,3.482L18.898,3.482ZM25.201,2.501L26.119,2.501C26.519,2.501 26.811,2.438 26.994,2.312C27.178,2.185 27.27,1.971 27.27,1.667C27.27,1.393 27.171,1.195 26.972,1.073C26.774,0.951 26.459,0.89 26.028,0.89L25.201,0.89L25.201,2.501ZM43.415,2.501L42.496,2.501L42.496,0.89L43.323,0.89C43.755,0.89 44.07,0.951 44.268,1.073C44.467,1.195 44.566,1.393 44.566,1.667C44.566,1.971 44.474,2.185 44.29,2.312C44.106,2.438 43.815,2.501 43.415,2.501ZM52.459,3.482L51.911,1.895C51.871,1.788 51.816,1.621 51.746,1.392C51.675,1.163 51.626,0.996 51.6,0.89C51.528,1.217 51.423,1.574 51.284,1.963L50.757,3.482L52.459,3.482ZM60.627,0.89L59.868,0.89C59.466,0.89 59.158,0.961 58.943,1.103C58.729,1.245 58.622,1.477 58.622,1.799C58.622,2.113 58.726,2.357 58.933,2.533C59.141,2.708 59.463,2.796 59.9,2.796L60.627,2.796L60.627,0.89ZM25.201,5.122L25.201,3.275L26.167,3.275C26.591,3.275 26.907,3.348 27.114,3.494C27.322,3.641 27.426,3.865 27.426,4.168C27.426,4.498 27.324,4.739 27.12,4.892C26.917,5.045 26.615,5.122 26.215,5.122L25.201,5.122ZM42.496,3.275L42.496,5.122L43.511,5.122C43.911,5.122 44.212,5.045 44.416,4.892C44.62,4.739 44.722,4.498 44.722,4.168C44.722,3.865 44.618,3.641 44.41,3.494C44.202,3.348 43.887,3.275 43.463,3.275L42.496,3.275ZM13.941,14.8C13.941,15.749 13.704,16.487 13.228,17.014C12.753,17.54 12.08,17.803 11.209,17.803C10.327,17.803 9.65,17.542 9.177,17.02C8.705,16.497 8.468,15.754 8.468,14.792C8.468,13.829 8.706,13.09 9.181,12.574C9.657,12.058 10.335,11.8 11.217,11.8C12.085,11.8 12.756,12.062 13.23,12.586C13.704,13.11 13.941,13.848 13.941,14.8ZM32.673,17.014C33.149,16.487 33.387,15.749 33.387,14.8C33.387,13.848 33.149,13.11 32.675,12.586C32.201,12.062 31.53,11.8 30.662,11.8C29.78,11.8 29.102,12.058 28.626,12.574C28.151,13.09 27.913,13.829 27.913,14.792C27.913,15.754 28.15,16.497 28.622,17.02C29.095,17.542 29.772,17.803 30.654,17.803C31.525,17.803 32.198,17.54 32.673,17.014ZM3.532,17.724L4.49,17.724L4.49,11.892L0,11.892L0,17.724L0.955,17.724L0.955,12.71L3.532,12.71L3.532,17.724ZM20.448,17.724L18.754,12.853L18.722,12.853C18.767,13.576 18.79,14.255 18.79,14.887L18.79,17.724L17.923,17.724L17.923,11.892L19.269,11.892L20.891,16.531L20.915,16.531L22.585,11.892L23.936,11.892L23.936,17.724L23.017,17.724L23.017,14.839C23.017,14.55 23.024,14.172 23.039,13.707C23.053,13.241 23.066,12.959 23.077,12.861L23.045,12.861L21.291,17.724L20.448,17.724ZM43.437,16.906L41.359,16.906L41.359,11.892L40.392,11.892L40.392,16.906L38.323,16.906L38.323,11.892L37.368,11.892L37.368,17.724L44.248,17.724L44.248,19.331L45.17,19.331L45.17,16.93L44.395,16.93L44.395,11.892L43.437,11.892L43.437,16.906ZM52.947,15.968C52.947,16.54 52.755,16.976 52.37,17.275C51.985,17.574 51.428,17.724 50.698,17.724L48.877,17.724L48.877,11.892L49.831,11.892L49.831,14.261L50.658,14.261C51.399,14.261 51.965,14.408 52.358,14.702C52.751,14.996 52.947,15.418 52.947,15.968ZM9.918,16.433C9.628,16.062 9.483,15.518 9.483,14.8C9.483,14.084 9.629,13.542 9.92,13.172C10.212,12.803 10.644,12.618 11.217,12.618C11.784,12.618 12.211,12.803 12.497,13.172C12.783,13.542 12.927,14.084 12.927,14.8C12.927,15.526 12.782,16.072 12.493,16.439C12.204,16.806 11.776,16.99 11.209,16.99C10.639,16.99 10.209,16.804 9.918,16.433ZM28.928,14.8C28.928,15.518 29.073,16.062 29.363,16.433C29.654,16.804 30.084,16.99 30.654,16.99C31.221,16.99 31.649,16.806 31.938,16.439C32.227,16.072 32.372,15.526 32.372,14.8C32.372,14.084 32.229,13.542 31.942,13.172C31.656,12.803 31.229,12.618 30.662,12.618C30.089,12.618 29.657,12.803 29.366,13.172C29.074,13.542 28.928,14.084 28.928,14.8ZM50.634,16.922L49.831,16.922L49.831,15.059L50.527,15.059C51.046,15.059 51.416,15.132 51.637,15.278C51.858,15.425 51.969,15.655 51.969,15.968C51.969,16.303 51.853,16.546 51.623,16.696C51.393,16.847 51.063,16.922 50.634,16.922ZM20.374,25.989C20.626,25.747 20.752,25.436 20.752,25.056C20.752,24.617 20.572,24.266 20.212,24.003C19.853,23.74 19.364,23.608 18.746,23.608C17.934,23.608 17.228,23.815 16.629,24.23L17.064,24.876C17.338,24.698 17.603,24.572 17.859,24.498C18.115,24.423 18.384,24.386 18.666,24.386C19.023,24.386 19.301,24.458 19.499,24.601C19.698,24.745 19.797,24.94 19.797,25.188C19.797,25.807 19.215,26.117 18.051,26.117L17.392,26.117L17.392,26.883L18.095,26.883C18.699,26.883 19.156,26.964 19.463,27.126C19.771,27.288 19.924,27.524 19.924,27.832C19.924,28.502 19.412,28.837 18.387,28.837C18.12,28.837 17.827,28.804 17.506,28.738C17.185,28.671 16.895,28.577 16.637,28.455L16.637,29.288C17.103,29.498 17.725,29.603 18.502,29.603C19.251,29.603 19.837,29.45 20.262,29.145C20.687,28.839 20.899,28.415 20.899,27.872C20.899,27.484 20.766,27.169 20.498,26.929C20.23,26.688 19.841,26.537 19.329,26.476L19.329,26.452C19.774,26.386 20.122,26.231 20.374,25.989ZM43.447,24.426C42.899,24.426 42.467,24.62 42.153,25.008C41.839,25.396 41.682,25.932 41.682,26.616C41.682,27.331 41.833,27.872 42.135,28.239C42.437,28.606 42.875,28.79 43.447,28.79C43.695,28.79 43.935,28.765 44.166,28.716C44.398,28.667 44.639,28.603 44.89,28.526L44.89,29.344C44.431,29.517 43.912,29.603 43.331,29.603C42.477,29.603 41.82,29.345 41.362,28.827C40.904,28.31 40.675,27.57 40.675,26.608C40.675,26.001 40.786,25.471 41.008,25.016C41.231,24.561 41.552,24.213 41.973,23.971C42.394,23.729 42.888,23.608 43.455,23.608C44.052,23.608 44.603,23.733 45.109,23.983L44.766,24.777C44.569,24.684 44.36,24.602 44.14,24.531C43.921,24.461 43.69,24.426 43.447,24.426ZM3.951,27.768C3.951,28.939 3.2,29.523 1.698,29.523L0,29.523L0,23.692L3.564,23.692L3.564,24.51L0.955,24.51L0.955,26.061L1.65,26.061C3.184,26.061 3.951,26.63 3.951,27.768ZM7.841,23.692L8.716,23.692L8.716,26.723C8.716,27.04 8.708,27.36 8.692,27.683C8.676,28.006 8.664,28.224 8.656,28.339L8.692,28.339L11.676,23.692L12.791,23.692L12.791,29.523L11.912,29.523L11.912,26.516C11.912,26.056 11.937,25.497 11.988,24.84L11.956,24.84L8.96,29.523L7.841,29.523L7.841,23.692ZM29.403,29.523L28.445,29.523L28.445,26.895L25.752,26.895L25.752,29.523L24.797,29.523L24.797,23.692L25.752,23.692L25.752,26.077L28.445,26.077L28.445,23.692L29.403,23.692L29.403,29.523ZM33.669,29.523L36.973,29.523L36.973,28.714L34.624,28.714L34.624,26.883L36.825,26.883L36.825,26.085L34.624,26.085L34.624,24.498L36.973,24.498L36.973,23.692L33.669,23.692L33.669,29.523ZM51.476,27.84L53.318,23.692L52.319,23.692L51.005,26.839C50.941,26.991 50.901,27.101 50.885,27.17L50.845,27.17C50.815,27.077 50.737,26.892 50.609,26.616L49.183,23.692L48.152,23.692L50.305,27.964C50.172,28.272 50.024,28.486 49.86,28.604C49.696,28.722 49.493,28.782 49.251,28.782C48.966,28.782 48.693,28.73 48.432,28.626L48.432,29.484C48.695,29.563 48.982,29.603 49.291,29.603C49.645,29.603 49.947,29.55 50.196,29.444C50.445,29.337 50.664,29.171 50.853,28.943C51.042,28.716 51.25,28.348 51.476,27.84ZM1.642,28.722L0.955,28.722L0.955,26.859L1.526,26.859C2.059,26.859 2.432,26.93 2.647,27.072C2.861,27.215 2.968,27.447 2.968,27.768C2.968,28.104 2.862,28.346 2.649,28.496C2.436,28.647 2.1,28.722 1.642,28.722Z" style="fill:rgb(174,151,133);"/>
    </g>
    <clipPath id="_clip1">
        <path d="M92.727,9.045L45.333,0L0,9.045L0,12.708L92.727,12.708L92.727,9.045Z"/>
    </clipPath>
    <g clip-path="url(#_clip1)">
        <path d="M45.333,0L92.727,9.045L92.727,12.708L0,12.708L0,9.045L45.333,0Z" style="fill:none;stroke:rgb(28,82,130);stroke-width:1.82px;"/>
    </g>
    <g transform="matrix(1.19854,0,0,1,4.32439,51.6392)">
        <path d="M1.119,0.904L4.102,0.904L4.102,0L0,0L0,6.453L1.119,6.453L1.119,0.904ZM17.066,6.453L17.066,4.055L18.402,4.055C19.151,4.055 19.733,3.88 20.149,3.528C20.565,3.176 20.772,2.684 20.772,2.052C20.772,1.435 20.56,0.938 20.135,0.563C19.711,0.188 19.137,0 18.415,0L15.943,0L15.943,6.453L17.066,6.453ZM36.285,0L34.989,3.373L33.484,0L32.258,0L34.469,4.698L34.238,5.243C34.108,5.515 33.883,5.651 33.564,5.651C33.383,5.651 33.257,5.645 33.186,5.633L33.177,6.52L33.639,6.546C34.302,6.546 34.781,6.283 35.077,5.757L35.281,5.354L37.532,0L36.285,0ZM54.411,6.453L53.293,6.453L53.293,0.904L50.447,0.904L50.447,6.453L49.329,6.453L49.329,0L54.411,0L54.411,6.453ZM70.669,6.453L71.788,6.453L71.788,0L66.705,0L66.705,6.453L67.824,6.453L67.824,0.904L70.669,0.904L70.669,6.453ZM17.066,3.156L18.415,3.156C18.815,3.156 19.12,3.062 19.33,2.874C19.54,2.687 19.645,2.415 19.645,2.061C19.645,1.712 19.538,1.434 19.325,1.225C19.112,1.017 18.819,0.91 18.446,0.904L17.066,0.904L17.066,3.156Z" style="fill:rgb(28,81,129);"/>
    </g>
</svg>
