<?xml version="1.0" encoding="UTF-8" standalone="no"?>
<!DOCTYPE svg PUBLIC "-//W3C//DTD SVG 1.1//EN" "http://www.w3.org/Graphics/SVG/1.1/DTD/svg11.dtd">
<svg width="100%" height="100%" viewBox="0 0 95 59" version="1.1" xmlns="http://www.w3.org/2000/svg" xmlns:xlink="http://www.w3.org/1999/xlink" xml:space="preserve" style="fill-rule:evenodd;clip-rule:evenodd;">
    <g transform="matrix(1,0,0,1,0,17.2462)">
        <path d="M17.408,29.046L31.513,29.046L31.513,28.151C29.126,28.068 27.933,26.86 27.933,24.528L27.933,4.518C27.933,2.242 29.126,1.034 31.513,0.895L31.513,0L0,0L0,0.895C2.386,1.034 3.58,2.242 3.58,4.518L3.58,24.528C3.58,26.86 2.386,28.068 0,28.151L0,29.046L14.105,29.046L14.105,28.151C11.719,28.068 10.526,26.86 10.526,24.528L10.526,5.455C10.526,3.04 11.719,1.832 14.105,1.832L17.408,1.832C19.794,1.832 20.987,3.04 20.987,5.455L20.987,24.528C20.987,26.86 19.794,28.068 17.408,28.151L17.408,29.046ZM51.349,29.046L65.454,29.046L65.454,28.151C63.068,28.068 61.875,26.86 61.875,24.528L61.875,4.518C61.875,2.242 63.068,1.034 65.454,0.895L65.454,0L33.942,0L33.942,0.895C36.328,1.034 37.521,2.242 37.521,4.518L37.521,24.528C37.521,26.86 36.328,28.068 33.942,28.151L33.942,29.046L48.047,29.046L48.047,28.151C45.661,28.068 44.467,26.86 44.467,24.528L44.467,5.455C44.467,3.04 45.661,1.832 48.047,1.832L51.349,1.832C53.736,1.832 54.929,3.04 54.929,5.455L54.929,24.528C54.929,26.86 53.736,28.068 51.349,28.151L51.349,29.046ZM93.899,20.822C93.899,24.153 92.237,26.471 88.913,27.776C86.726,28.623 83.601,29.046 79.538,29.046L67.671,29.046L67.671,28.151C70.057,28.068 71.25,26.86 71.25,24.528L71.25,4.518C71.25,2.242 70.057,1.034 67.671,0.895L67.671,0L91.896,0L91.896,8.828L91.023,8.828C90.994,8.759 90.938,8.53 90.852,8.141C89.943,3.63 87.45,1.374 83.374,1.374L79.943,1.374C78.963,1.374 78.409,1.707 78.281,2.374C78.224,2.651 78.196,3.158 78.196,3.894L78.196,13.014L82.372,13.014C85.497,13.014 88.068,13.541 90.085,14.596C92.628,15.956 93.899,18.032 93.899,20.822ZM85.163,16.428C86.044,17.567 86.484,19.1 86.484,21.03C86.484,25.43 84.531,27.63 80.625,27.63C79.659,27.63 79.027,27.478 78.729,27.172C78.374,26.797 78.196,25.972 78.196,24.694L78.196,14.513L80.817,14.513C82.734,14.513 84.183,15.151 85.163,16.428Z" style="fill:white;"/>
    </g>
    <clipPath id="_clip1">
        <path d="M92.727,9.045L45.333,0L0,9.045L0,12.708L92.727,12.708L92.727,9.045Z"/>
    </clipPath>
    <g clip-path="url(#_clip1)">
        <path d="M45.333,0L92.727,9.045L92.727,12.708L0,12.708L0,9.045L45.333,0Z" style="fill:none;stroke:white;stroke-width:1.82px;"/>
    </g>
    <g transform="matrix(1.19854,0,0,1,4.32439,51.6392)">
        <path d="M1.119,0.904L4.102,0.904L4.102,0L0,0L0,6.453L1.119,6.453L1.119,0.904ZM17.066,6.453L17.066,4.055L18.402,4.055C19.151,4.055 19.733,3.88 20.149,3.528C20.565,3.176 20.772,2.684 20.772,2.052C20.772,1.435 20.56,0.938 20.135,0.563C19.711,0.188 19.137,0 18.415,0L15.943,0L15.943,6.453L17.066,6.453ZM36.285,0L34.989,3.373L33.484,0L32.258,0L34.469,4.698L34.238,5.243C34.108,5.515 33.883,5.651 33.564,5.651C33.383,5.651 33.257,5.645 33.186,5.633L33.177,6.52L33.639,6.546C34.302,6.546 34.781,6.283 35.077,5.757L35.281,5.354L37.532,0L36.285,0ZM54.411,6.453L53.293,6.453L53.293,0.904L50.447,0.904L50.447,6.453L49.329,6.453L49.329,0L54.411,0L54.411,6.453ZM70.669,6.453L71.788,6.453L71.788,0L66.705,0L66.705,6.453L67.824,6.453L67.824,0.904L70.669,0.904L70.669,6.453ZM17.066,3.156L18.415,3.156C18.815,3.156 19.12,3.062 19.33,2.874C19.54,2.687 19.645,2.415 19.645,2.061C19.645,1.712 19.538,1.434 19.325,1.225C19.112,1.017 18.819,0.91 18.446,0.904L17.066,0.904L17.066,3.156Z" style="fill:white;"/>
    </g>
</svg>
